<svg width="541" height="167" viewBox="0 0 541 167" fill="none" xmlns="http://www.w3.org/2000/svg">
<path d="M75.5214 126.403C63.8729 126.403 55.0406 123.673 49.0243 118.211C43.0081 112.749 40 104.962 40 94.8501V92.034C40 82.0496 43.0081 74.3693 49.0243 68.9931C55.0832 63.6169 63.8942 60.9288 75.4574 60.9288C79.3402 60.9288 82.839 61.2275 85.9538 61.8248C89.1112 62.4222 91.906 63.1902 94.3381 64.1289C96.7702 65.0676 98.8182 66.0277 100.482 67.009L101.698 78.5295C98.8396 76.6947 95.4048 75.116 91.394 73.7933C87.4258 72.4279 82.7323 71.7452 77.3134 71.7452C69.4198 71.7452 63.4462 73.4946 59.3927 76.9934C55.3393 80.4922 53.3125 85.5271 53.3125 92.098V94.7221C53.3125 101.336 55.3819 106.435 59.5207 110.019C63.6596 113.603 69.7398 115.395 77.7614 115.395C83.1376 115.395 87.8098 114.734 91.778 113.411C95.7888 112.045 99.3516 110.424 102.466 108.547L101.186 120.131C98.5409 121.71 95.0848 123.161 90.8179 124.483C86.5511 125.763 81.4523 126.403 75.5214 126.403Z" fill="white"/>
<path d="M113.378 62.9129H126.562V96.4502C126.562 100.12 127.138 103.384 128.29 106.243C129.485 109.059 131.426 111.277 134.115 112.899C136.803 114.52 140.472 115.331 145.123 115.331C149.39 115.331 153.081 114.627 156.195 113.219C159.353 111.768 161.913 109.827 163.876 107.395C165.881 104.962 167.268 102.253 168.036 99.2663L170.02 109.123H167.396C166.5 112.152 164.921 114.968 162.66 117.571C160.441 120.174 157.475 122.264 153.763 123.843C150.094 125.422 145.614 126.211 140.323 126.211C133.923 126.211 128.738 125.102 124.77 122.883C120.802 120.664 117.901 117.443 116.066 113.219C114.274 108.952 113.378 103.832 113.378 97.8582V62.9129ZM167.46 62.9129H180.644V124.483H167.46L168.036 107.139L167.46 105.667V62.9129Z" fill="white"/>
<path d="M211.283 124.483H198.098V40H211.283V124.483Z" fill="white"/>
<path d="M257.782 126.147C251.382 126.147 246.283 125.251 242.486 123.459C238.731 121.624 236.021 118.894 234.357 115.267C232.693 111.64 231.861 107.117 231.861 101.698V69.8891H244.918V100.29C244.918 105.325 246.113 109.059 248.502 111.491C250.891 113.88 255.03 115.075 260.918 115.075C264.46 115.075 267.873 114.712 271.159 113.987C274.444 113.219 277.495 112.152 280.311 110.787L279.031 121.987C276.258 123.267 273.058 124.27 269.431 124.995C265.804 125.763 261.921 126.147 257.782 126.147ZM278.775 74.1773H219.317V63.9369H280.119L278.775 74.1773ZM244.534 65.153H231.989L231.925 46.9123L245.046 45.5682L244.534 65.153Z" fill="white"/>
<path d="M304.462 90.1139L302.03 80.5135H305.038C306.745 74.668 309.732 70.0811 313.998 66.753C318.265 63.3822 323.705 61.6968 330.319 61.6968C332.452 61.6968 334.287 61.8675 335.823 62.2088C337.402 62.5075 338.789 62.8915 339.983 63.3609L341.071 75.5854C339.535 75.0733 337.807 74.6467 335.887 74.3053C334.01 73.964 331.983 73.7933 329.807 73.7933C323.833 73.7933 318.649 75.2013 314.254 78.0175C309.902 80.7909 306.638 84.823 304.462 90.1139ZM305.038 124.483H291.854V62.9129H304.974L304.398 83.3937L305.038 84.0337V124.483Z" fill="white"/>
<path d="M381.629 126.339C369.767 126.339 360.722 123.673 354.492 118.339C348.305 112.963 345.212 105.24 345.212 95.1701V92.098C345.212 82.0709 348.326 74.3906 354.556 69.0571C360.786 63.6809 369.81 60.9928 381.629 60.9928C393.448 60.9928 402.473 63.6809 408.702 69.0571C414.932 74.3906 418.046 82.0709 418.046 92.098V95.1701C418.046 105.24 414.932 112.963 408.702 118.339C402.473 123.673 393.448 126.339 381.629 126.339ZM381.629 115.779C389.096 115.779 394.814 114.029 398.782 110.531C402.793 106.989 404.798 101.912 404.798 95.2981V91.906C404.798 85.3351 402.793 80.3002 398.782 76.8014C394.814 73.2599 389.096 71.4892 381.629 71.4892C374.205 71.4892 368.487 73.2599 364.476 76.8014C360.466 80.3002 358.46 85.3351 358.46 91.906V95.2981C358.46 101.912 360.466 106.989 364.476 110.531C368.487 114.029 374.205 115.779 381.629 115.779Z" fill="white"/>
<path d="M464.572 126.339C452.71 126.339 443.665 123.673 437.435 118.339C431.248 112.963 428.155 105.24 428.155 95.1701V92.098C428.155 82.0709 431.27 74.3906 437.499 69.0571C443.729 63.6809 452.753 60.9928 464.572 60.9928C476.391 60.9928 485.416 63.6809 491.645 69.0571C497.875 74.3906 500.99 82.0709 500.99 92.098V95.1701C500.99 105.24 497.875 112.963 491.645 118.339C485.416 123.673 476.391 126.339 464.572 126.339ZM464.572 115.779C472.039 115.779 477.757 114.029 481.725 110.531C485.736 106.989 487.741 101.912 487.741 95.2981V91.906C487.741 85.3351 485.736 80.3002 481.725 76.8014C477.757 73.2599 472.039 71.4892 464.572 71.4892C457.148 71.4892 451.43 73.2599 447.42 76.8014C443.409 80.3002 441.403 85.3351 441.403 91.906V95.2981C441.403 101.912 443.409 106.989 447.42 110.531C451.43 114.029 457.148 115.779 464.572 115.779Z" fill="white"/>
</svg>
